<svg width="7" height="4" viewBox="0 0 7 4" fill="none" xmlns="http://www.w3.org/2000/svg">
<path d="M3.77314 3.89139L6.88817 0.861476C6.96028 0.791398 7 0.697849 7 0.598101C7 0.498353 6.96028 0.404805 6.88817 0.334726L6.65882 0.111594C6.50938 -0.0335999 6.26649 -0.0335999 6.11727 0.111594L3.50145 2.65589L0.882733 0.108771C0.810628 0.0386923 0.714507 -2.74748e-07 0.612011 -2.79228e-07C0.509402 -2.83713e-07 0.413281 0.0386922 0.341119 0.108771L0.111828 0.331903C0.0397234 0.402037 -2.16603e-08 0.49553 -2.60204e-08 0.595278C-3.03806e-08 0.695026 0.0397234 0.788575 0.111828 0.858653L3.22971 3.89139C3.30204 3.96164 3.39861 4.00022 3.50128 4C3.60434 4.00022 3.70086 3.96164 3.77314 3.89139Z" fill="white"/>
</svg>
