<svg width="97" height="38" viewBox="0 0 97 38" fill="none" xmlns="http://www.w3.org/2000/svg">
<path d="M96.284 27.7051V36.7365H72.3843V0.61316H96.284V9.64455H83.6256V14.0828H94.7659V22.6028H83.6256V27.7051H96.284ZM53.0454 8.82774C52.1337 8.82774 51.4241 9.4409 51.4241 10.665C51.4241 15.2051 68.0829 14.4414 68.0829 25.5624C68.0829 32.1943 63.0696 37.0929 54.4118 37.0929C46.2087 37.0929 39.7785 33.2656 39.2711 25.1551H51.222C51.4241 27.8092 52.8411 28.2674 53.9571 28.2674C55.0731 28.2674 56.1342 27.756 56.1342 26.481C56.0836 21.5824 39.1722 23.3687 39.3743 11.0214C39.3743 3.77636 45.4508 0 53.0959 0C61.7537 0 67.325 4.18366 67.6281 11.6833H55.5256C55.4246 9.4896 54.2602 8.82553 53.0454 8.82553V8.82774ZM18.4822 10.4592C13.8754 10.4592 11.4434 13.6224 11.4434 18.521C11.4434 23.4196 13.8732 26.5297 18.4822 26.5297C23.0912 26.5297 25.4704 23.3156 25.4704 18.521C25.4704 13.7264 22.9901 10.4592 18.4822 10.4592ZM18.4822 37.0929C8.30413 37.0929 0 29.3897 0 18.521C0 7.65233 8.30413 0 18.4822 0C28.6602 0 36.8633 7.65233 36.8633 18.521C36.8633 29.3897 28.6097 37.0929 18.4822 37.0929Z" fill="white"/>
</svg>
