<svg width="107" height="6" viewBox="0 0 107 6" fill="none" xmlns="http://www.w3.org/2000/svg">
<path d="M103.575 0.796886C102.483 0.796886 101.693 1.57828 101.693 2.82895C101.693 4.07962 102.483 4.87651 103.575 4.87651C104.667 4.87651 105.458 4.07962 105.458 2.82895C105.458 1.57828 104.667 0.796886 103.575 0.796886ZM103.575 5.66454C102.027 5.66454 100.768 4.49356 100.768 2.82895C100.768 1.16434 102.024 0 103.575 0C105.126 0 106.383 1.17098 106.383 2.82895C106.383 4.48692 105.142 5.66454 103.575 5.66454ZM94.3617 0.812382H93.3643V2.62087H94.3617C95.0647 2.62087 95.381 2.27777 95.381 1.71995C95.381 1.16213 95.0647 0.812382 94.3617 0.812382ZM94.3617 3.36242H93.3643V5.6092H92.4636V0.0708327H94.3617C95.6666 0.0708327 96.3059 0.819021 96.3059 1.71995C96.3059 2.50798 95.7919 3.36242 94.3617 3.36242ZM86.0378 2.84445L87.7448 5.6092H86.732L85.4908 3.60149L84.3286 5.6092H83.3247L85.0316 2.84445L83.3159 0.0708327H84.3286L85.5787 2.09404L86.7496 0.0708327H87.7535L86.0378 2.84445ZM78.6454 4.86765V5.6092H75.6093V0.0641922H78.6454V0.805742H76.51V2.4305H78.4081V3.17205H76.51V4.86987H78.6454V4.86765ZM62.8346 0.812382H61.8372V2.62087H62.8346C63.5376 2.62087 63.8539 2.27777 63.8539 1.71995C63.8539 1.16213 63.5376 0.812382 62.8346 0.812382ZM62.8346 3.36242H61.8372V5.6092H60.9365V0.0708327H62.8346C64.1395 0.0708327 64.781 0.819021 64.781 1.71995C64.781 2.50798 64.2669 3.36242 62.8346 3.36242ZM53.2804 0.796886C52.1886 0.796886 51.3977 1.57828 51.3977 2.82895C51.3977 4.07962 52.1886 4.87651 53.2804 4.87651C54.3723 4.87651 55.1631 4.07962 55.1631 2.82895C55.1631 1.57828 54.3723 0.796886 53.2804 0.796886ZM53.2804 5.66454C51.7316 5.66454 50.4728 4.49356 50.4728 2.82895C50.4728 1.16434 51.7294 0 53.2804 0C54.8314 0 56.088 1.17098 56.088 2.82895C56.088 4.48692 54.8468 5.66454 53.2804 5.66454ZM44.8313 0.812382V5.6092H43.9306V0.812382H42.4587V0.0708327H46.2944V0.812382H44.8313ZM35.9648 0.772536C35.4419 0.757041 35.0399 1.0116 35.0399 1.54508C35.0399 2.79575 37.9507 2.01435 37.9507 4.03978C37.9507 4.86765 37.2785 5.66454 36.0527 5.66454C34.9542 5.66454 34.1084 5.06023 34.1084 4.07962H35.0729C35.1124 4.5334 35.4288 4.90086 36.0527 4.90086C36.6766 4.90086 37.0412 4.55775 37.0412 4.08848C37.0412 2.74926 34.1238 3.6192 34.1238 1.57828C34.1238 0.606518 34.8905 0 36.0131 0C37.0654 0 37.8079 0.557819 37.887 1.50523H36.8897C36.8589 1.13113 36.5338 0.788031 35.9648 0.772536ZM23.1681 4.86765V5.6092H20.132V0.0641922H23.1681V0.805742H21.0327V2.4305H22.9308V3.17205H21.0327V4.86987H23.1681V4.86765ZM14.0775 5.6092L11.3644 1.47424V5.6092H10.4636V0.0641922H11.3644L14.0775 4.1903V0.0641922H14.9782V5.6092H14.0775ZM2.80759 0.796886C1.71575 0.796886 0.924876 1.57828 0.924876 2.82895C0.924876 4.07962 1.71575 4.87651 2.80759 4.87651C3.89942 4.87651 4.6903 4.07962 4.6903 2.82895C4.6903 1.57828 3.89942 0.796886 2.80759 0.796886ZM2.80759 5.66454C1.2588 5.66454 0 4.49356 0 2.82895C0 1.16434 1.2566 0 2.80759 0C4.35857 0 5.61517 1.17098 5.61517 2.82895C5.61517 4.48692 4.37395 5.66454 2.80759 5.66454Z" fill="white"/>
</svg>
