<svg width="124" height="48" viewBox="0 0 124 48" fill="none" xmlns="http://www.w3.org/2000/svg">
<g >
<path fill-rule="evenodd" clip-rule="evenodd" d="M23.3758 15.8138C27.7408 15.8138 31.2789 19.3475 31.2789 23.7054C31.2789 28.0633 27.7408 31.5986 23.3758 31.5986C19.0107 31.5986 15.4742 28.0649 15.4742 23.7054C15.4742 19.3459 19.0124 15.8138 23.3758 15.8138Z" fill="white"/>
<path d="M121.94 42.7346C121.139 42.7346 120.559 43.3029 120.559 44.2124C120.559 45.122 121.139 45.7016 121.94 45.7016C122.741 45.7016 123.321 45.122 123.321 44.2124C123.321 43.3029 122.741 42.7346 121.94 42.7346ZM121.94 46.2747C120.804 46.2747 119.88 45.4231 119.88 44.2124C119.88 43.0018 120.802 42.155 121.94 42.155C123.078 42.155 124 43.0066 124 44.2124C124 45.4182 123.089 46.2747 121.94 46.2747ZM115.18 42.7458H114.448V44.0611H115.18C115.695 44.0611 115.928 43.8116 115.928 43.4059C115.928 43.0002 115.695 42.7458 115.18 42.7458ZM115.18 44.6004H114.448V46.2344H113.787V42.2065H115.18C116.137 42.2065 116.606 42.7507 116.606 43.4059C116.606 43.979 116.229 44.6004 115.18 44.6004ZM109.072 44.2237L110.325 46.2344H109.582L108.671 44.7743L107.818 46.2344H107.081L108.334 44.2237L107.075 42.2065H107.818L108.735 43.678L109.594 42.2065H110.331L109.072 44.2237ZM103.648 45.6951V46.2344H101.421V42.2017H103.648V42.741H102.081V43.9227H103.474V44.462H102.081V45.6967H103.648V45.6951ZM92.0473 42.7458H91.3155V44.0611H92.0473C92.5631 44.0611 92.7952 43.8116 92.7952 43.4059C92.7952 43.0002 92.5631 42.7458 92.0473 42.7458ZM92.0473 44.6004H91.3155V46.2344H90.6546V42.2065H92.0473C93.0048 42.2065 93.4755 42.7507 93.4755 43.4059C93.4755 43.979 93.0983 44.6004 92.0473 44.6004ZM85.0372 42.7346C84.2361 42.7346 83.6558 43.3029 83.6558 44.2124C83.6558 45.122 84.2361 45.7016 85.0372 45.7016C85.8383 45.7016 86.4186 45.122 86.4186 44.2124C86.4186 43.3029 85.8383 42.7346 85.0372 42.7346ZM85.0372 46.2747C83.9008 46.2747 82.9772 45.4231 82.9772 44.2124C82.9772 43.0018 83.8992 42.155 85.0372 42.155C86.1752 42.155 87.0972 43.0066 87.0972 44.2124C87.0972 45.4182 86.1865 46.2747 85.0372 46.2747ZM78.8378 42.7458V46.2344H78.1769V42.7458H77.097V42.2065H79.9114V42.7458H78.8378ZM72.3322 42.7169C71.9486 42.7056 71.6536 42.8907 71.6536 43.2787C71.6536 44.1883 73.7894 43.62 73.7894 45.093C73.7894 45.6951 73.2961 46.2747 72.3967 46.2747C71.5907 46.2747 70.9702 45.8352 70.9702 45.122H71.6778C71.7068 45.452 71.9389 45.7193 72.3967 45.7193C72.8545 45.7193 73.122 45.4697 73.122 45.1285C73.122 44.1545 70.9814 44.7872 70.9814 43.3029C70.9814 42.5961 71.544 42.155 72.3677 42.155C73.1398 42.155 73.6846 42.5607 73.7426 43.2497H73.0108C72.9883 42.9777 72.7497 42.7281 72.3322 42.7169ZM62.9429 45.6951V46.2344H60.7153V42.2017H62.9429V42.741H61.3761V43.9227H62.7688V44.462H61.3761V45.6967H62.9429V45.6951ZM56.2729 46.2344L54.2822 43.2272V46.2344H53.6213V42.2017H54.2822L56.2729 45.2025V42.2017H56.9338V46.2344H56.2729ZM48.0039 42.7346C47.2027 42.7346 46.6225 43.3029 46.6225 44.2124C46.6225 45.122 47.2027 45.7016 48.0039 45.7016C48.805 45.7016 49.3852 45.122 49.3852 44.2124C49.3852 43.3029 48.805 42.7346 48.0039 42.7346ZM48.0039 46.2747C46.8675 46.2747 45.9438 45.4231 45.9438 44.2124C45.9438 43.0018 46.8659 42.155 48.0039 42.155C49.1419 42.155 50.0639 43.0066 50.0639 44.2124C50.0639 45.4182 49.1531 46.2747 48.0039 46.2747Z" fill="white"/>
<path d="M123.969 30.3043V36.8725H106.434V10.601H123.969V17.1693H114.682V20.3971H122.856V26.5935H114.682V30.3043H123.969ZM92.244 16.5753C91.575 16.5753 91.0544 17.0212 91.0544 17.9115C91.0544 21.2133 103.277 20.6579 103.277 28.7459C103.277 33.5691 99.5991 37.1317 93.2466 37.1317C87.2278 37.1317 82.5097 34.3483 82.1374 28.4497H90.9061C91.0544 30.3799 92.0941 30.7132 92.9129 30.7132C93.7318 30.7132 94.5103 30.3413 94.5103 29.414C94.4732 25.8514 82.0649 27.1505 82.2131 18.1706C82.2131 12.9015 86.6717 10.1551 92.2811 10.1551C98.6335 10.1551 102.721 13.1977 102.944 18.652H94.0638C93.9897 17.0566 93.1354 16.5736 92.244 16.5736V16.5753ZM66.884 17.7617C63.5039 17.7617 61.7195 20.0622 61.7195 23.6249C61.7195 27.1875 63.5022 29.4494 66.884 29.4494C70.2658 29.4494 72.0115 27.1119 72.0115 23.6249C72.0115 20.1379 70.1916 17.7617 66.884 17.7617ZM66.884 37.1317C59.4161 37.1317 53.3231 31.5294 53.3231 23.6249C53.3231 15.7204 59.4161 10.1551 66.884 10.1551C74.3519 10.1551 80.3707 15.7204 80.3707 23.6249C80.3707 31.5294 74.3149 37.1317 66.884 37.1317Z" fill="white"/>
<path d="M25.4148 6.90148C13.3208 -11.2885 -12.2987 10.6026 6.92958 25.1462C0.810824 10.8956 15.4968 1.35707 25.4148 6.90148Z" fill="white"/>
<path d="M36.7561 33.458C58.5538 31.7789 51.9047 -1.23478 29.8169 8.44379C45.2589 10.0553 46.4388 27.5111 36.7561 33.458Z" fill="white"/>
<path d="M8.37542 27.5932C-1.35076 47.15 30.4407 58.3628 33.4388 34.4577C24.1398 46.8763 8.52694 38.9445 8.37542 27.5932Z" fill="white"/>
</g>
</svg>
