<svg width="12" height="12" viewBox="0 0 12 12" fill="none" xmlns="http://www.w3.org/2000/svg">
<path d="M5.79484 0C2.59964 0 3.7395e-05 2.5996 3.7395e-05 5.79481C3.7395e-05 6.79252 0.25778 7.77361 0.74656 8.6393L0.00935946 11.2696C-0.0148276 11.3561 0.00860364 11.4488 0.0710868 11.513C0.119209 11.5627 0.184715 11.5896 0.251985 11.5896C0.272141 11.5896 0.292549 11.5871 0.312453 11.5823L3.05768 10.9023C3.89591 11.3523 4.83996 11.5896 5.79484 11.5896C8.99005 11.5896 11.5896 8.99001 11.5896 5.79481C11.5896 2.5996 8.99005 0 5.79484 0ZM8.70988 7.83962C8.58592 8.18277 7.99133 8.49594 7.70562 8.53802C7.44913 8.57556 7.12462 8.59168 6.76837 8.47982C6.55245 8.41179 6.27531 8.32159 5.92031 8.17017C4.42802 7.53375 3.45349 6.05003 3.37891 5.95202C3.30459 5.85401 2.77147 5.15561 2.77147 4.43277C2.77147 3.70994 3.15569 3.35444 3.29224 3.2073C3.4288 3.06016 3.58979 3.02338 3.68906 3.02338C3.78833 3.02338 3.88734 3.02464 3.97427 3.02867C4.06572 3.0332 4.18842 2.99415 4.30911 3.28087C4.43306 3.57514 4.73061 4.29798 4.7674 4.3718C4.80469 4.44537 4.82938 4.53129 4.78 4.62929C4.73061 4.7273 4.70592 4.78852 4.63135 4.87444C4.55677 4.96035 4.47514 5.06592 4.40812 5.13193C4.33354 5.20525 4.2562 5.28461 4.34287 5.43175C4.42954 5.57889 4.72809 6.05985 5.17052 6.44937C5.73866 6.94974 6.21812 7.10494 6.36677 7.1785C6.51541 7.25207 6.60234 7.23973 6.68901 7.14172C6.77568 7.04346 7.06088 6.71265 7.1599 6.56577C7.25891 6.41888 7.35818 6.44307 7.49474 6.4922C7.63129 6.54108 8.3627 6.89632 8.51135 6.96989C8.66 7.04346 8.75926 7.08024 8.79655 7.14147C8.83384 7.20244 8.83384 7.49671 8.70988 7.83962Z" fill="#646464"/>
</svg>
