<svg width="13" height="13" viewBox="0 0 13 13" fill="none" xmlns="http://www.w3.org/2000/svg">
<path d="M2.70801 12.1045H0.196289V4.02539H2.70801V12.1045ZM9.0918 3.82812C11.6335 3.82812 12.1025 5.49327 12.1025 7.67188V12.0889H9.59082V8.15527C9.59082 7.21732 9.57581 6.02251 8.29004 6.02246C6.98905 6.02246 6.79203 7.03579 6.79199 8.09473V12.1045H4.28027V4.02539H6.68652V5.12988H6.7168C7.04964 4.49446 7.86633 3.82813 9.0918 3.82812ZM1.45215 0C2.25377 9.81812e-05 2.90407 0.650555 2.9043 1.45215C2.9043 2.25394 2.25391 2.91982 1.45215 2.91992C0.650299 2.91992 0 2.254 0 1.45215C0.000230392 0.650495 0.650441 0 1.45215 0Z" fill="#646464"/>
</svg>
