<svg width="30" height="30" viewBox="0 0 30 30" fill="none" xmlns="http://www.w3.org/2000/svg">
<path d="M29.595 8.75H27.02C27.7512 6.30375 27.62 4.35875 26.63 3.36875C26.06 2.79875 25.1725 2.5125 24.055 2.5125C20.7188 2.5125 15.3287 5.06 10.195 10.195C9.50125 10.8888 8.8675 11.5862 8.26875 12.2837L7.51125 9.3875C7.8125 9.06625 8.11 8.74375 8.42625 8.4275C15.94 0.91625 24.7125 -2.0825 28.3988 1.60125C29.9963 3.19875 30.3338 5.75625 29.595 8.75ZM23.1225 5.625L24.5925 11.25H30V12.3962L25.875 14.7825L27.5325 19.8187L26.595 20.4725L22.5187 17.3213L18.425 20.4862L17.5238 19.8075L19.1537 14.7125L15 12.4025V11.25H20.4375L21.91 5.625H23.1225ZM24.375 23.75C23.34 23.75 22.5 24.59 22.5 25.625C22.5 26.66 23.34 27.5 24.375 27.5C25.41 27.5 26.25 26.66 26.25 25.625C26.25 24.59 25.41 23.75 24.375 23.75ZM1.875 3.75C0.84 3.75 0 4.59 0 5.625C0 6.66 0.84 7.5 1.875 7.5C2.91 7.5 3.75 6.66 3.75 5.625C3.75 4.59 2.91 3.75 1.875 3.75ZM8.125 0C7.09 0 6.25 0.84 6.25 1.875C6.25 2.91 7.09 3.75 8.125 3.75C9.16 3.75 10 2.91 10 1.875C10 0.84 9.16 0 8.125 0ZM10 15.835L6.45125 14.7987L5.415 11.25H4.60625L3.555 14.7962L0 15.835V16.6437L3.55375 17.6962L4.60625 21.25H5.415L6.45375 17.695L10 16.6437V15.835ZM16.8588 22.4475C13.9588 24.785 11.12 26.3025 8.75 27.0138C6.30375 27.745 4.32875 27.6513 3.34 26.6625C2.77 26.0925 2.48375 25.205 2.48375 24.0875C2.48375 23.8 2.52875 23.4788 2.56625 23.1625L1.5425 19.7075L0.92375 19.5238C-0.4375 23.2638 -0.32875 26.5263 1.5725 28.4287C3.17 30.0263 5.75625 30.33 8.75 29.5913C11.8575 28.8225 15.4338 26.895 18.9088 24L16.86 22.4463L16.8588 22.4475Z" fill="black"/>
</svg>
