<svg width="30" height="30" viewBox="0 0 30 30" fill="none" xmlns="http://www.w3.org/2000/svg">
<path d="M28.415 11.2343C27.4563 10.3605 26.2075 9.9093 24.9187 9.9743C23.6237 10.0343 22.43 10.5968 21.5563 11.5555L18.5088 14.9043C17.7013 14.168 16.625 13.718 15.4475 13.718H4.375C1.9625 13.718 0 15.6805 0 18.093V25.593C0 28.0055 1.9625 29.968 4.375 29.968H18.3512L28.7687 18.053C30.5312 16.0768 30.3713 13.0193 28.415 11.2343ZM25.9575 15.5705L16.6488 26.218H4.375C4.03125 26.218 3.75 25.938 3.75 25.593V18.093C3.75 17.748 4.03125 17.468 4.375 17.468H15.4463C15.8888 17.468 16.25 17.828 16.25 18.2705C16.25 18.6668 15.9538 19.0093 15.5613 19.0655L9.11 19.9868L9.64 23.6993L16.0925 22.778C18.115 22.4893 19.6863 20.8643 19.9587 18.8843L24.33 14.0805C24.5288 13.8618 24.8 13.7343 25.095 13.7205C25.3862 13.713 25.6737 13.8093 25.89 14.0068C26.335 14.413 26.3713 15.108 25.9587 15.5718L25.9575 15.5705ZM3.75 5.59305C3.72 3.5593 5.02875 1.43555 7.51375 0.665547C11.7275 -1.2007 18.7487 0.923047 18.7487 6.21805C18.7487 9.96805 15.8625 12.2155 13.0625 12.468C14.9587 11.3555 16.2487 9.49305 16.2487 7.46805C16.2487 4.96805 13.69 3.7668 11.8737 3.72805C10.3587 3.6968 7.49875 3.71805 7.49875 6.21805C7.49875 7.27055 8.63125 8.09305 9.99875 8.09305C11.2487 8.09305 12.5837 7.59555 13.0625 6.21805C13.2413 6.9543 12.4987 10.0018 8.74875 10.0018C4.99875 10.0018 3.78 7.51305 3.75 5.59305Z" fill="black"/>
</svg>
